<?xml version="1.0" standalone="no"?>
<!DOCTYPE svg PUBLIC "-//W3C//DTD SVG 20010904//EN"
 "http://www.w3.org/TR/2001/REC-SVG-20010904/DTD/svg10.dtd">
<svg version="1.0" xmlns="http://www.w3.org/2000/svg"
 width="300.000000pt" height="300.000000pt" viewBox="0 0 300.000000 300.000000"
 preserveAspectRatio="xMidYMid meet">
<metadata>
Created by potrace 1.11, written by Peter Selinger 2001-2013
</metadata>
<g transform="translate(0.000000,300.000000) scale(0.100000,-0.100000)"
fill="#000000" stroke="none">
<path d="M1535 2600 c6 -10 4 -12 -8 -7 -9 3 -18 0 -21 -9 -3 -8 -12 -14 -20
-14 -8 0 -18 -5 -22 -12 -5 -7 -3 -8 5 -3 10 6 11 3 2 -14 -7 -11 -17 -21 -23
-21 -6 0 -8 -3 -4 -7 3 -4 -4 -13 -16 -21 -16 -9 -17 -12 -4 -7 15 4 17 3 8
-8 -7 -8 -8 -18 -4 -23 4 -4 -2 -2 -12 6 -15 12 -18 12 -12 1 5 -8 3 -17 -5
-22 -9 -6 -10 -9 -2 -9 8 0 7 -9 -5 -29 -9 -16 -20 -27 -24 -25 -4 3 -5 -2 -2
-10 4 -11 -2 -19 -17 -25 -13 -5 -18 -10 -10 -10 11 -1 11 -4 1 -16 -7 -8 -10
-22 -6 -30 3 -9 2 -13 -4 -10 -6 3 -10 -1 -10 -9 0 -9 -5 -16 -11 -16 -5 0 -7
5 -3 12 4 7 3 8 -5 4 -9 -6 -9 -11 -1 -21 8 -10 8 -15 -1 -20 -8 -6 -7 -10 2
-16 11 -7 10 -9 -4 -9 -10 0 -15 -5 -12 -10 4 -6 11 -7 17 -4 7 4 8 2 4 -4 -4
-6 -14 -8 -24 -5 -14 6 -15 4 -4 -9 10 -13 10 -18 1 -24 -8 -5 -9 -3 -4 6 5 9
4 11 -3 6 -8 -5 -8 -15 -2 -32 7 -17 7 -23 0 -19 -6 3 -10 1 -10 -5 0 -6 -5
-8 -11 -4 -7 4 -6 -2 2 -17 11 -22 11 -23 -5 -10 -15 12 -17 12 -14 0 2 -8 8
-17 13 -21 6 -5 5 -8 -2 -8 -7 0 -10 -7 -6 -17 5 -11 3 -14 -6 -8 -10 6 -11 3
-2 -14 9 -16 9 -19 -2 -16 -8 4 -13 -3 -14 -17 -2 -16 0 -19 6 -10 7 11 10 10
14 -3 4 -9 3 -13 -3 -10 -6 3 -10 1 -10 -5 0 -6 -4 -9 -8 -6 -5 3 -9 -1 -9 -9
0 -8 4 -12 9 -9 10 6 -1 -26 -16 -45 -8 -11 -8 -13 2 -7 7 4 12 1 12 -8 0 -9
-6 -16 -12 -16 -10 0 -9 -3 1 -9 11 -7 11 -9 0 -14 -12 -5 -12 -6 0 -6 11 -1
11 -4 0 -18 -10 -11 -10 -14 -1 -9 6 4 12 2 12 -3 0 -6 -6 -11 -12 -11 -9 0
-8 -4 2 -10 13 -9 13 -10 0 -10 -13 0 -13 -1 0 -10 10 -6 11 -10 3 -10 -7 0
-13 -5 -13 -11 0 -5 6 -7 13 -3 9 6 9 4 -1 -8 -11 -14 -10 -18 5 -27 17 -10
17 -10 1 -11 -10 0 -18 -5 -18 -11 0 -6 7 -8 17 -5 14 6 14 3 -3 -15 -10 -12
-13 -19 -5 -14 10 6 12 -2 10 -39 -4 -38 -2 -44 8 -30 10 14 12 12 11 -14 -1
-16 3 -35 7 -42 6 -9 4 -11 -6 -5 -11 7 -12 6 -2 -7 7 -8 10 -17 7 -21 -3 -3
4 -8 15 -12 12 -3 21 -11 21 -17 0 -6 -7 -5 -17 3 -15 13 -15 12 -4 -9 7 -12
16 -20 21 -17 6 3 7 -1 4 -10 -4 -9 1 -22 12 -31 18 -14 18 -14 -1 -8 -16 4
-15 2 4 -9 16 -9 20 -17 12 -21 -6 -4 -9 -12 -5 -17 3 -5 10 -7 15 -4 5 4 6
-2 2 -12 -6 -15 -4 -16 8 -6 13 10 15 8 13 -17 -1 -17 2 -27 7 -24 5 3 9 0 9
-6 0 -6 5 -8 10 -5 6 3 10 -3 10 -14 0 -13 7 -21 16 -21 13 0 14 -3 5 -14 -9
-11 -9 -16 0 -22 8 -4 9 -3 5 4 -4 7 -1 12 8 12 9 0 13 -8 12 -23 -2 -14 3
-24 11 -25 7 -1 20 -3 28 -4 12 -1 12 -4 2 -17 -9 -12 -9 -13 1 -7 6 4 12 3
12 -3 0 -5 9 -8 21 -6 16 3 18 1 10 -9 -8 -10 -4 -16 17 -25 15 -7 24 -9 20
-5 -4 4 0 13 10 21 11 10 12 12 2 8 -8 -4 -4 3 10 14 14 11 31 21 38 21 7 0
10 5 7 10 -3 6 -1 10 5 10 6 0 8 5 4 13 -6 9 -4 9 8 -1 13 -10 18 -10 24 -1 4
8 3 9 -4 5 -18 -11 -14 8 6 26 25 24 37 40 45 61 4 11 12 15 18 11 8 -5 9 -3
4 6 -4 7 -4 15 1 19 5 3 17 18 27 33 16 26 16 27 0 22 -16 -5 -16 -4 -2 8 9 7
14 19 11 27 -3 10 0 12 11 8 11 -4 15 -1 12 13 -2 11 0 22 5 25 5 3 7 12 4 19
-3 7 2 21 11 30 9 9 12 16 6 16 -6 0 -11 5 -11 11 0 6 7 9 14 6 10 -4 13 -1 9
9 -3 8 1 22 8 31 10 12 10 15 2 9 -8 -4 -13 -1 -13 9 0 9 5 13 10 10 6 -3 10
-1 10 4 0 6 -5 11 -11 11 -8 0 -7 6 2 17 8 9 9 14 3 10 -9 -5 -9 3 -2 33 7 25
15 37 22 33 6 -3 3 3 -7 14 -19 22 -15 73 7 73 6 0 5 4 -3 9 -7 5 -11 13 -7
19 3 6 1 14 -5 18 -7 4 -9 3 -5 -4 3 -6 2 -13 -3 -16 -11 -7 -9 13 2 32 5 6 6
16 3 20 -3 5 -8 23 -11 41 -4 24 -2 31 7 26 7 -4 5 0 -5 8 -14 11 -15 16 -5
20 9 4 8 6 -4 6 -17 1 -19 16 -4 40 6 10 5 12 -2 7 -12 -7 -14 -2 -14 46 -1
15 -3 26 -7 24 -3 -2 -13 3 -21 12 -13 14 -12 15 2 9 12 -4 15 -2 11 9 -3 7
-9 14 -14 14 -5 0 -9 16 -9 36 0 19 -4 33 -9 29 -16 -9 -25 36 -10 47 10 7 7
8 -11 4 -21 -4 -23 -3 -9 7 14 11 14 14 2 26 -8 7 -12 20 -8 29 3 9 3 13 -1 9
-10 -9 -37 30 -29 43 3 6 -1 10 -11 10 -11 0 -15 6 -11 20 3 11 1 18 -3 15 -5
-3 -14 3 -20 14 -9 17 -8 20 6 14 12 -4 15 -3 10 5 -4 7 -14 12 -22 12 -14 0
-18 10 -15 42 1 9 -3 20 -10 24 -8 5 -9 3 -4 -7 8 -12 6 -12 -9 0 -12 10 -14
16 -5 21 8 6 8 9 0 14 -6 4 -15 4 -21 1 -6 -3 -7 1 -4 9 3 9 2 16 -4 16 -6 0
-9 11 -7 25 1 14 -2 28 -8 32 -6 4 -7 1 -2 -7z m283 -765 c-3 -3 -9 2 -12 12
-6 14 -5 15 5 6 7 -7 10 -15 7 -18z m5 -70 c-3 -9 -8 -14 -10 -11 -3 3 -2 9 2
15 9 16 15 13 8 -4z m-102 -458 c-10 -9 -11 -8 -5 6 3 10 9 15 12 12 3 -3 0
-11 -7 -18z"/>
<path d="M900 2440 c-7 -10 -18 -16 -23 -13 -6 4 -7 1 -1 -8 12 -20 14 -40 3
-33 -5 3 -6 10 -3 16 5 7 2 8 -5 4 -7 -5 -10 -10 -7 -13 2 -3 1 -15 -4 -27 -5
-13 -4 -30 2 -40 8 -14 8 -17 -2 -11 -9 5 -11 -2 -7 -28 4 -30 2 -34 -12 -30
-13 5 -12 2 4 -17 l20 -23 -20 11 c-21 11 -22 8 -16 -51 1 -4 9 -7 19 -5 12 2
17 -3 16 -20 -1 -18 1 -20 12 -11 10 8 14 8 14 0 0 -6 12 -11 26 -11 19 0 25
-4 20 -15 -3 -8 -1 -15 4 -15 6 0 10 8 10 18 0 14 2 15 9 2 6 -8 7 -18 5 -22
-3 -4 1 -5 9 -2 8 3 20 -2 27 -11 10 -12 16 -13 29 -3 9 7 13 9 9 4 -8 -10 15
-36 32 -36 6 0 9 -4 6 -9 -3 -5 4 -11 15 -14 16 -4 19 -2 14 11 -5 13 -2 12
15 -3 21 -19 21 -19 11 8 -6 15 -7 27 -2 27 5 0 7 9 4 20 -3 11 -2 28 2 37 5
10 8 21 7 25 -1 4 4 5 11 2 8 -3 14 2 14 10 0 8 -5 12 -11 9 -6 -4 -5 0 1 9 7
8 10 18 6 21 -3 4 -2 7 4 7 6 0 10 8 9 18 0 9 4 16 11 15 7 -2 10 4 6 12 -4
11 -9 13 -18 5 -9 -8 -12 -4 -10 15 2 14 -1 25 -5 25 -5 0 -21 12 -36 28 -15
15 -21 18 -13 7 13 -19 13 -19 -4 -6 -10 8 -15 21 -12 29 4 10 0 13 -14 9 -12
-3 -18 1 -17 12 1 11 -6 15 -21 13 -17 -2 -21 1 -18 16 2 13 -2 19 -13 19 -35
0 -43 3 -36 14 4 7 -1 7 -16 -1 -13 -7 -20 -8 -16 -2 3 6 2 13 -4 17 -5 3 -10
0 -10 -7 0 -10 -2 -10 -8 -1 -6 9 -12 8 -22 -7z m117 -345 c0 -8 -4 -12 -9 -9
-5 3 -6 10 -3 15 9 13 12 11 12 -6z"/>
<path d="M2100 2452 c0 -5 -11 -8 -25 -7 -16 2 -23 -1 -18 -8 4 -7 0 -8 -11
-4 -13 5 -17 3 -13 -7 4 -11 -1 -13 -21 -10 -15 3 -24 2 -20 -1 10 -10 -15
-33 -29 -28 -7 3 -13 -2 -13 -11 0 -9 -6 -15 -12 -13 -7 1 -12 -6 -10 -15 1
-9 -3 -20 -9 -24 -8 -5 -9 -3 -4 7 7 12 6 12 -7 1 -13 -10 -17 -10 -22 0 -3 7
-3 3 0 -10 4 -15 1 -22 -8 -20 -7 2 -12 -3 -10 -11 2 -8 -3 -11 -12 -8 -11 4
-13 1 -9 -10 4 -10 2 -14 -4 -10 -5 3 -10 0 -10 -8 0 -8 4 -12 9 -9 4 3 8 -11
8 -31 0 -21 4 -34 10 -30 6 4 7 -1 3 -11 -5 -13 -3 -15 7 -9 8 5 11 4 6 -3 -3
-6 -2 -13 2 -16 5 -3 8 -18 7 -33 -1 -15 4 -35 12 -45 10 -11 11 -18 3 -23 -6
-3 -9 -1 -8 6 2 6 -4 14 -12 16 -13 4 -13 3 0 -6 8 -6 11 -11 6 -11 -5 0 -3
-6 3 -13 6 -8 9 -16 6 -19 -3 -2 2 -5 10 -5 10 0 12 4 5 12 -8 9 -3 11 17 7
16 -2 25 -1 21 2 -3 4 1 16 10 25 13 13 21 15 31 7 11 -8 13 -8 7 2 -4 7 -1
12 9 12 8 0 18 7 22 16 3 8 12 13 19 10 8 -3 14 -1 14 4 0 6 7 10 16 10 8 0
13 4 10 8 -3 5 1 9 9 9 8 0 12 -5 9 -11 -3 -6 1 -3 9 7 11 13 16 15 19 5 3 -8
9 -5 17 10 10 18 15 21 26 12 15 -12 16 5 2 27 -5 8 -3 11 5 8 9 -4 14 2 14
14 0 12 -5 17 -15 13 -10 -4 -12 -1 -6 9 11 16 14 50 5 44 -3 -2 -12 5 -19 17
-7 11 -8 17 -2 13 15 -9 14 8 -1 24 -10 11 -10 13 0 7 6 -4 12 -2 12 3 0 6 -5
11 -11 11 -8 0 -7 6 2 17 12 14 12 16 -1 11 -12 -4 -16 1 -14 21 1 15 -5 35
-12 46 -8 10 -14 14 -14 9 0 -6 3 -14 8 -20 4 -5 -1 -1 -10 9 -10 11 -18 15
-18 9z"/>
<path d="M1375 2409 c-4 -6 -5 -12 -2 -15 2 -3 7 2 10 11 7 17 1 20 -8 4z"/>
<path d="M2577 2155 c-4 -8 -2 -17 3 -20 6 -4 10 -10 10 -16 0 -5 -8 -1 -18 9
-11 9 -17 22 -15 27 3 6 -3 1 -11 -9 -12 -15 -16 -16 -16 -5 0 12 -2 12 -10
-1 -7 -11 -10 -11 -10 -2 0 7 -5 10 -11 6 -6 -3 -29 -8 -52 -10 -22 -2 -47
-10 -56 -17 -8 -6 -12 -7 -8 -1 3 6 0 11 -7 11 -9 0 -12 -7 -8 -16 5 -13 2
-13 -22 2 l-27 18 11 -23 c10 -19 10 -21 -1 -10 -15 14 -33 16 -25 3 6 -10
-24 -25 -32 -16 -3 3 0 5 6 5 7 0 12 4 12 10 0 5 -7 7 -15 4 -8 -4 -15 -14
-15 -23 0 -14 -2 -14 -10 -1 -9 13 -14 7 -11 -12 0 -4 -11 -3 -25 2 -17 7 -23
7 -19 0 3 -6 1 -10 -5 -10 -6 0 -8 -4 -5 -10 4 -6 -1 -7 -11 -3 -12 4 -15 3
-10 -5 4 -7 2 -12 -3 -12 -6 0 -11 5 -11 11 0 5 -5 7 -10 4 -6 -4 -7 -11 -4
-17 5 -7 0 -9 -14 -6 -12 4 -26 0 -33 -8 -7 -8 -18 -13 -25 -10 -7 3 -16 0
-20 -6 -4 -6 -3 -8 4 -4 6 3 13 2 16 -3 7 -11 -22 -23 -35 -15 -5 3 -9 -2 -9
-10 0 -8 -4 -18 -10 -21 -6 -4 -7 1 -4 12 6 15 4 15 -9 -2 -8 -11 -13 -23 -11
-27 2 -4 -1 -10 -7 -14 -8 -4 -9 -3 -5 4 4 7 1 12 -9 12 -9 0 -13 -4 -10 -10
3 -5 1 -10 -5 -10 -6 0 -8 -5 -4 -12 5 -8 2 -9 -11 -4 -15 5 -16 4 -5 -9 11
-13 10 -15 -1 -10 -11 4 -15 -5 -15 -40 0 -35 4 -44 15 -40 12 5 12 3 0 -11
-16 -20 -21 -47 -6 -37 7 4 8 0 3 -13 -14 -34 -15 -53 -4 -60 6 -4 5 -10 -3
-15 -12 -7 -11 -9 0 -9 11 0 9 -4 -5 -15 -19 -15 -19 -15 1 -9 16 6 18 5 8 -7
-7 -7 -13 -17 -13 -22 0 -4 6 -5 13 -1 6 4 3 -3 -8 -16 -11 -13 -15 -20 -8
-17 13 8 23 -11 15 -30 -2 -7 -9 -13 -14 -13 -6 0 -5 6 2 15 9 10 9 15 1 15
-6 0 -11 -3 -12 -7 0 -5 -2 -16 -4 -25 -2 -10 4 -22 13 -28 11 -6 12 -9 4 -10
-7 0 -10 -5 -6 -12 4 -7 3 -8 -5 -4 -6 4 -8 12 -5 18 4 6 3 8 -3 5 -5 -3 -9
-27 -8 -52 1 -31 -2 -45 -10 -42 -6 3 -12 -4 -12 -14 -1 -12 3 -17 9 -13 7 5
8 2 4 -5 -5 -7 -15 -10 -25 -6 -12 5 -13 4 -4 -6 10 -10 9 -15 -5 -26 -9 -8
-11 -12 -4 -8 8 4 11 -1 9 -16 -2 -13 -9 -25 -15 -27 -7 -2 -9 -9 -5 -15 4 -7
0 -8 -13 -3 -15 6 -16 4 -7 -5 9 -9 7 -16 -10 -31 -12 -11 -15 -16 -7 -12 12
7 13 5 3 -8 -7 -8 -9 -19 -5 -23 4 -5 1 -4 -7 0 -11 6 -13 4 -8 -8 4 -11 2
-14 -7 -11 -7 3 -19 -3 -27 -13 -13 -17 -13 -17 6 -3 20 14 20 14 1 -7 -10
-13 -23 -20 -29 -16 -6 3 -7 1 -3 -5 4 -7 2 -12 -4 -12 -6 0 -9 -4 -5 -9 3 -6
-3 -14 -12 -20 -11 -6 -13 -11 -5 -11 8 0 10 -5 6 -12 -4 -7 1 -6 12 4 10 9
30 18 44 20 14 1 28 8 32 13 5 6 8 5 8 -3 0 -7 5 -10 10 -7 6 4 8 11 5 16 -4
5 -1 9 5 9 6 0 8 5 4 12 -4 7 -3 8 5 4 6 -4 9 -13 5 -19 -3 -7 3 -2 15 11 11
12 22 18 25 13 4 -5 0 -12 -6 -14 -10 -4 -10 -6 0 -6 7 -1 15 6 18 14 5 12 10
13 20 4 10 -8 12 -7 9 9 -2 14 1 19 12 18 9 -2 25 6 35 16 10 10 23 16 29 13
5 -4 16 -1 24 5 8 6 19 9 25 5 6 -4 10 -3 9 2 -3 18 3 47 8 36 7 -19 21 -16
19 5 -1 12 6 17 26 16 22 0 25 3 16 13 -8 11 -7 12 7 7 10 -4 16 -3 13 2 -7
11 17 35 26 27 3 -4 6 -1 6 6 0 7 4 10 9 6 5 -3 12 4 16 15 4 11 11 18 16 15
8 -6 13 8 10 27 0 4 7 4 16 1 11 -4 14 -3 9 5 -4 7 -2 12 4 12 6 0 8 5 4 13
-6 9 -4 9 8 -1 14 -11 16 -10 14 12 -3 23 -1 24 18 14 18 -10 19 -9 9 4 -14
17 0 37 27 39 10 0 11 2 3 6 -7 2 -13 9 -13 14 0 6 4 8 8 5 4 -2 14 -1 22 5
11 6 12 9 2 9 -7 0 -11 4 -7 10 3 5 12 7 20 3 8 -3 15 0 15 6 0 6 -5 11 -11
11 -5 0 -7 5 -4 11 4 6 14 8 22 4 14 -5 14 -3 2 12 -13 15 -12 16 9 11 17 -5
21 -3 13 5 -6 8 -3 19 9 34 9 12 20 20 22 18 3 -3 5 2 5 10 0 8 -5 11 -11 8
-6 -3 -1 4 12 16 12 12 22 26 22 32 0 6 6 7 13 3 8 -5 8 -2 -2 9 -10 13 -10
17 -1 17 10 0 10 3 0 15 -10 12 -9 15 5 15 9 0 15 6 12 13 -2 6 3 18 12 25 12
10 13 12 1 6 -12 -7 -13 -5 -3 8 7 8 10 18 6 21 -3 4 -1 7 6 7 7 0 9 5 6 10
-3 6 -2 10 4 10 5 0 11 -6 14 -12 3 -7 4 -3 4 9 -1 12 -6 19 -12 15 -5 -3 -4
2 3 11 8 9 11 21 8 26 -4 5 -1 13 5 17 7 4 9 19 5 37 -6 30 -6 30 9 12 10 -13
15 -14 12 -5 -2 8 0 23 5 34 8 14 7 17 -4 11 -10 -6 -11 -5 0 6 6 7 12 17 12
22 0 4 -6 5 -12 2 -7 -4 -4 1 6 9 11 9 15 16 9 16 -7 0 -11 9 -10 19 0 11 5
17 9 15 5 -3 5 -10 2 -16 -4 -7 -2 -8 5 -4 6 4 9 11 6 16 -3 5 -1 19 5 30 8
16 8 20 -2 18 -8 -2 -12 4 -10 15 4 21 -4 23 -11 2z m-475 -157 c-7 -7 -12 -8
-12 -2 0 6 3 14 7 17 3 4 9 5 12 2 2 -3 -1 -11 -7 -17z m-372 -912 c0 -2 -8
-10 -17 -17 -16 -13 -17 -12 -4 4 13 16 21 21 21 13z"/>
<path d="M441 2151 c-18 -11 -24 -44 -8 -35 7 3 3 -2 -8 -12 -16 -13 -17 -16
-3 -11 19 7 34 -8 18 -18 -6 -4 -7 -12 -3 -18 7 -11 9 -20 12 -68 0 -12 5 -17
12 -13 7 4 10 -6 8 -29 -2 -20 1 -40 5 -44 5 -5 6 -2 1 6 -6 10 -4 12 4 7 9
-6 9 -11 1 -21 -7 -9 -6 -16 5 -25 8 -7 12 -16 9 -21 -3 -5 -1 -9 5 -9 6 0 7
-7 4 -17 -5 -12 -3 -14 7 -8 10 6 12 4 7 -8 -4 -10 -2 -17 5 -17 6 0 5 -6 -3
-17 -13 -15 -12 -15 10 -4 13 7 21 8 17 3 -3 -6 -2 -21 3 -35 7 -17 6 -28 -2
-37 -10 -10 -7 -10 11 -1 18 9 22 9 20 -1 -2 -7 -7 -16 -13 -20 -5 -4 -1 -8
10 -8 17 0 17 -2 5 -10 -12 -8 -12 -10 5 -10 17 0 17 -2 5 -10 -13 -8 -12 -10
3 -10 9 0 17 -7 17 -15 0 -8 12 -26 26 -40 17 -17 23 -32 19 -45 -4 -12 -2
-20 5 -20 6 0 9 4 5 9 -3 5 -1 12 4 15 5 4 8 -5 7 -19 -2 -13 0 -23 3 -21 3 2
12 -2 19 -10 7 -8 10 -14 7 -14 -3 0 -1 -9 5 -20 6 -11 17 -20 25 -20 9 0 15
-9 15 -22 0 -19 2 -20 10 -8 8 12 10 11 10 -6 0 -19 70 -97 70 -78 1 5 9 -2
20 -15 11 -12 17 -28 13 -34 -3 -5 -1 -7 5 -3 6 3 13 2 17 -4 3 -5 15 -10 26
-10 10 0 19 -5 19 -11 0 -6 7 -8 16 -5 15 6 15 4 3 -11 -7 -10 -9 -15 -5 -11
5 4 14 1 20 -8 6 -8 21 -16 34 -17 12 0 22 -7 22 -15 0 -7 5 -10 10 -7 6 3 10
1 10 -4 0 -6 11 -11 25 -11 14 0 25 -4 25 -10 0 -5 7 -7 15 -4 8 4 17 -1 21
-10 4 -10 18 -16 36 -16 17 0 27 -4 23 -10 -3 -5 1 -10 10 -10 10 0 13 5 9 12
-4 7 -3 8 4 4 6 -4 9 -13 6 -21 -4 -9 2 -13 20 -11 14 2 27 -3 30 -10 5 -14
36 -12 63 6 16 10 15 10 -4 5 -19 -5 -23 -2 -23 14 0 12 -5 21 -11 21 -5 0 -8
4 -5 8 3 5 -6 15 -19 22 -13 7 -22 17 -19 22 3 4 -3 8 -13 9 -10 0 -13 3 -6 6
10 3 9 8 -3 20 -8 9 -13 22 -9 31 4 12 3 13 -10 2 -13 -11 -14 -10 -9 5 6 14
4 16 -7 10 -11 -7 -11 -5 1 10 12 15 12 17 1 10 -11 -6 -13 -3 -9 13 4 12 1
25 -4 29 -6 3 -8 2 -5 -4 3 -5 1 -10 -6 -10 -7 0 -13 8 -13 18 0 10 5 15 11
11 5 -3 4 2 -4 11 -7 9 -10 17 -5 17 5 0 2 5 -6 10 -13 8 -13 10 -1 10 11 0
10 4 -4 13 -11 9 -15 19 -10 27 5 9 4 11 -3 6 -10 -6 -18 34 -13 67 0 4 -5 7
-12 7 -8 0 -7 4 3 10 8 5 10 10 4 10 -7 0 -15 7 -18 16 -5 13 -3 14 6 6 10 -8
13 -4 14 16 1 15 -1 21 -3 15 -3 -7 -9 -13 -14 -13 -11 0 -7 23 6 32 6 4 1 8
-9 8 -18 0 -18 2 5 27 13 14 19 23 13 20 -7 -4 -18 1 -25 10 -10 12 -10 14 -1
9 6 -4 12 -2 12 3 0 6 -5 11 -11 11 -8 0 -7 5 2 16 10 13 10 17 0 24 -11 6
-11 9 0 13 9 3 7 6 -6 6 -17 1 -17 3 -5 11 8 5 16 18 16 30 1 14 -2 17 -10 11
-8 -6 -11 -2 -11 14 0 14 4 20 10 15 6 -5 11 1 11 16 1 13 -2 21 -8 18 -7 -4
-6 0 0 12 14 26 -8 59 -27 41 -10 -9 -11 -8 -6 5 5 12 1 20 -11 25 -11 4 -26
15 -36 25 -12 14 -17 16 -21 6 -3 -7 -6 -3 -6 8 -1 12 -8 25 -17 28 -14 5 -15
4 -4 -9 11 -13 10 -14 -4 -9 -9 3 -16 12 -16 19 0 8 -5 17 -12 21 -7 5 -9 2
-5 -9 4 -11 2 -14 -8 -10 -8 3 -12 9 -9 14 3 5 0 9 -7 9 -7 0 -21 8 -32 18
-11 9 -17 11 -13 5 4 -7 3 -13 -3 -13 -5 0 -13 9 -16 20 -3 11 -11 20 -16 20
-6 0 -7 -4 -4 -10 3 -5 1 -10 -4 -10 -6 0 -11 7 -11 16 0 8 -4 13 -9 10 -5 -3
-14 1 -21 9 -6 7 -19 11 -27 8 -12 -5 -14 -3 -8 8 8 12 6 12 -8 0 -11 -9 -17
-10 -17 -2 0 6 -5 11 -11 11 -5 0 -8 -4 -5 -9 11 -17 -26 -5 -39 12 -15 21
-26 22 -19 2 4 -8 1 -15 -5 -15 -10 0 -15 12 -13 31 1 3 -21 5 -49 3 -27 -1
-49 1 -49 5 0 4 -7 8 -15 8 -8 0 -15 -5 -15 -11 0 -5 -7 -1 -16 10 -8 10 -13
14 -10 8 3 -7 -1 -15 -10 -18 -12 -4 -15 -2 -10 9 6 17 6 18 -13 6z m333 -69
c3 -5 -1 -9 -9 -9 -8 0 -12 4 -9 9 3 4 7 8 9 8 2 0 6 -4 9 -8z m-303 -79 c13
-16 12 -17 -3 -4 -10 7 -18 15 -18 17 0 8 8 3 21 -13z m639 -377 c0 -3 -4 -8
-10 -11 -5 -3 -10 -1 -10 4 0 6 5 11 10 11 6 0 10 -2 10 -4z m-280 -288 c0 -6
-6 -5 -15 2 -8 7 -15 14 -15 16 0 2 7 1 15 -2 8 -4 15 -11 15 -16z m75 -58
c-3 -5 -1 -10 6 -10 7 0 10 -3 6 -6 -9 -9 -28 6 -22 17 4 5 8 9 11 9 3 0 2 -4
-1 -10z"/>
<path d="M1860 2140 c0 -5 5 -10 11 -10 5 0 7 5 4 10 -3 6 -8 10 -11 10 -2 0
-4 -4 -4 -10z"/>
<path d="M1830 1639 c0 -5 5 -7 10 -4 6 3 10 8 10 11 0 2 -4 4 -10 4 -5 0 -10
-5 -10 -11z"/>
<path d="M384 1619 c-3 -6 -14 -9 -24 -6 -13 3 -17 0 -13 -10 7 -17 -27 -15
-39 2 -4 6 -8 2 -8 -7 0 -10 -7 -18 -15 -18 -8 0 -15 5 -15 12 0 6 -3 8 -7 4
-5 -4 -8 -13 -8 -18 0 -6 -7 -13 -15 -15 -13 -4 -13 -3 0 6 12 8 8 10 -17 8
-26 -2 -29 -5 -20 -16 10 -12 8 -12 -12 -2 -13 7 -21 9 -17 3 3 -5 -1 -13 -10
-16 -10 -4 -13 -2 -8 6 4 6 -7 3 -24 -7 -17 -10 -29 -22 -26 -27 3 -4 -2 -8
-10 -8 -9 0 -16 -6 -16 -12 0 -9 -4 -8 -11 2 -9 12 -10 12 -5 -3 3 -10 6 -23
6 -28 0 -5 5 -9 11 -9 5 0 7 5 3 12 -5 7 -3 8 5 4 7 -5 10 -10 7 -13 -3 -3 6
-16 20 -30 14 -14 23 -31 20 -39 -3 -8 7 -21 24 -31 17 -9 30 -21 30 -26 0 -4
-5 -5 -12 -1 -7 4 -8 3 -4 -4 4 -6 13 -9 21 -5 8 3 15 0 15 -7 0 -6 5 -8 11
-4 8 4 8 0 0 -15 -9 -17 -9 -20 3 -15 8 3 17 0 21 -5 3 -6 12 -8 18 -4 7 4 6
0 -2 -10 -12 -15 -11 -17 8 -17 12 0 19 -4 16 -10 -3 -5 -1 -10 5 -10 17 0 60
-47 52 -56 -4 -5 0 -3 9 4 13 10 19 9 30 -5 13 -17 13 -17 -6 -3 -19 14 -19
14 -6 -2 7 -10 22 -18 33 -18 12 0 17 -4 12 -12 -5 -8 -2 -9 9 -5 11 4 17 1
17 -8 0 -8 5 -15 11 -15 5 0 7 6 4 13 -4 6 0 4 8 -5 8 -10 18 -14 22 -10 5 4
5 -1 2 -10 -4 -13 -2 -15 10 -11 11 4 14 3 9 -6 -4 -6 -4 -10 1 -9 4 1 19 -4
33 -12 24 -13 24 -12 10 6 -14 18 -14 18 3 5 9 -7 17 -20 17 -28 0 -8 5 -11
10 -8 6 4 7 11 4 17 -4 6 2 5 15 -2 12 -6 19 -15 16 -20 -4 -6 1 -7 11 -3 11
4 15 3 10 -5 -4 -8 4 -10 28 -8 21 1 32 -2 29 -8 -4 -5 1 -7 10 -3 11 4 14 2
11 -8 -4 -10 0 -12 15 -8 13 3 21 1 21 -6 0 -7 4 -10 9 -6 5 3 12 1 16 -4 3
-6 13 -7 22 -4 9 4 22 -1 31 -13 10 -13 13 -14 9 -3 -3 9 0 16 9 16 7 0 11 -4
8 -9 -3 -4 0 -8 6 -8 6 0 8 -4 5 -10 -3 -6 1 -7 10 -3 14 5 14 8 3 15 -9 7 -8
8 5 4 10 -3 21 -6 23 -6 3 0 3 -4 0 -8 -2 -4 4 -8 14 -8 10 0 16 4 14 8 -3 4
0 8 5 8 6 0 11 -5 11 -11 0 -8 4 -8 13 -1 10 9 19 7 35 -4 13 -9 22 -12 21 -7
-4 22 3 23 19 2 15 -17 21 -19 27 -9 5 8 4 11 -2 7 -6 -4 -14 0 -17 8 -5 13
-2 14 15 4 11 -6 26 -8 33 -6 7 3 19 1 27 -3 8 -5 19 -4 27 3 8 6 24 12 35 14
21 3 21 2 3 -12 -10 -8 -23 -12 -29 -8 -6 4 -7 1 -3 -6 5 -7 14 -10 21 -7 7 2
18 0 24 -5 6 -5 9 -6 6 -2 -3 3 2 15 12 25 9 10 13 21 10 25 -4 3 -7 1 -7 -6
0 -7 -4 -10 -10 -6 -5 3 -8 11 -6 18 1 7 1 9 -1 5 -3 -5 -13 -3 -24 2 -14 8
-19 7 -19 -2 0 -9 -3 -9 -10 2 -5 8 -10 11 -10 5 0 -5 -8 1 -16 15 -11 18 -14
20 -10 5 6 -19 5 -19 -8 -1 -8 10 -19 15 -24 12 -5 -3 -12 4 -15 16 -4 12 -9
19 -13 15 -4 -4 -14 -1 -22 6 -13 10 -14 9 -7 -3 8 -13 7 -13 -11 0 -10 8 -25
22 -32 30 -12 13 -13 13 -6 0 4 -8 -9 2 -29 23 -38 38 -60 51 -36 20 13 -16
12 -17 -3 -4 -10 7 -18 20 -18 29 0 8 -3 13 -6 9 -4 -3 -15 4 -26 16 -11 12
-17 15 -13 7 4 -10 2 -9 -8 2 -8 10 -17 15 -21 11 -4 -4 -4 0 0 10 6 16 -5 22
-29 18 -5 -1 -6 3 -2 9 3 5 1 10 -5 10 -6 0 -9 4 -5 9 3 5 1 12 -4 15 -5 4
-13 1 -17 -5 -5 -8 -3 -9 6 -4 9 5 11 4 6 -4 -4 -6 -12 -9 -17 -5 -5 3 -7 9
-4 14 7 11 -5 40 -17 40 -5 0 -16 7 -25 15 -8 8 -20 12 -26 8 -8 -4 -7 -1 1 9
10 13 10 17 -3 22 -10 3 -13 11 -9 18 4 7 4 10 -1 6 -4 -4 -14 0 -22 10 -9 10
-12 11 -7 2 4 -9 3 -12 -2 -7 -5 5 -9 12 -10 15 -3 21 -18 42 -31 42 -13 0
-13 3 -3 15 11 13 10 14 -5 9 -13 -5 -16 -4 -11 4 4 8 -7 26 -29 47 -20 20
-34 39 -31 43 3 5 -6 20 -19 34 -13 14 -21 29 -17 34 4 4 1 4 -6 0 -7 -4 -20
-2 -29 6 -14 11 -16 11 -11 -3 5 -13 2 -16 -13 -12 -10 3 -27 -1 -37 -8 -14
-11 -13 -9 2 9 11 12 16 22 13 22 -3 0 -9 -5 -13 -11z m111 -49 c10 -11 16
-20 13 -20 -3 0 -13 9 -23 20 -10 11 -16 20 -13 20 3 0 13 -9 23 -20z m-351
-38 c3 -5 -1 -9 -9 -9 -8 0 -12 4 -9 9 3 4 7 8 9 8 2 0 6 -4 9 -8z"/>
<path d="M2593 1619 c5 -16 -17 -20 -40 -6 -7 5 -10 -1 -9 -18 2 -17 -3 -26
-15 -30 -11 -4 -19 -11 -19 -16 0 -6 -5 -7 -12 -3 -6 4 -8 3 -4 -4 3 -6 0 -17
-8 -25 -8 -8 -12 -17 -9 -21 4 -3 -2 -6 -13 -6 -16 0 -17 -2 -4 -10 13 -8 12
-10 -2 -10 -10 0 -18 -7 -18 -15 0 -9 -7 -18 -15 -21 -8 -4 -12 -11 -8 -17 4
-6 0 -8 -9 -4 -12 4 -14 1 -11 -14 4 -15 2 -18 -13 -13 -11 4 -16 3 -11 -1 4
-5 -5 -17 -20 -28 -28 -18 -28 -18 -3 -12 24 5 24 5 -3 -10 -18 -10 -26 -22
-23 -31 5 -12 -10 -19 -36 -16 -3 1 -9 -5 -12 -14 -4 -10 -2 -13 6 -8 7 4 8 3
4 -4 -4 -7 -15 -12 -25 -12 -10 0 -25 -7 -32 -17 -13 -15 -12 -15 11 -4 l25
12 -25 -20 c-13 -11 -27 -19 -30 -19 -17 1 -24 -3 -14 -10 8 -5 3 -14 -15 -27
-18 -13 -22 -14 -13 -3 10 13 10 18 1 24 -7 4 -9 3 -5 -4 3 -6 1 -14 -5 -17
-5 -4 -8 -13 -6 -19 4 -9 -3 -11 -19 -8 -20 4 -23 1 -17 -13 4 -13 3 -16 -5
-11 -7 4 -15 0 -18 -9 -4 -9 -12 -14 -20 -11 -8 3 -11 -2 -9 -16 4 -20 4 -20
-15 -3 -19 17 -19 17 -15 -3 3 -16 -1 -20 -16 -17 -12 3 -17 0 -13 -7 5 -8 1
-9 -11 -4 -15 5 -16 4 -5 -9 12 -14 10 -14 -15 -5 -26 10 -27 9 -14 -7 12 -15
12 -16 -3 -10 -11 4 -18 2 -18 -5 0 -6 -3 -9 -6 -5 -3 3 -15 -4 -25 -14 -13
-13 -27 -18 -40 -14 -11 4 -19 2 -19 -4 0 -6 -5 -11 -11 -11 -5 0 -7 5 -4 10
3 6 4 10 1 10 -3 0 -10 -9 -16 -21 -8 -15 -8 -24 0 -34 8 -9 8 -15 0 -18 -6
-3 -5 -4 2 -3 7 2 12 9 10 16 -2 8 3 10 13 6 9 -3 13 -2 10 3 -3 5 0 13 6 17
8 4 9 3 5 -4 -4 -7 -2 -12 4 -12 6 0 9 -4 5 -9 -3 -5 -1 -13 5 -16 6 -4 10 -3
9 2 -5 26 3 32 33 26 23 -5 29 -3 23 6 -6 10 -3 11 14 2 24 -13 52 -11 63 4 4
6 8 1 8 -9 0 -20 0 -20 15 0 9 12 17 15 22 8 9 -12 54 -14 46 -1 -3 5 3 7 13
5 11 -2 18 2 17 7 -1 6 10 11 23 11 15 1 21 -2 17 -10 -4 -6 1 -5 10 3 9 7 36
15 59 16 26 2 45 10 51 21 8 13 11 14 18 3 6 -10 9 -11 9 -1 0 6 7 12 16 12 8
0 13 4 9 9 -3 5 -1 13 5 16 6 4 9 1 8 -6 -2 -6 3 -14 11 -17 8 -2 11 -1 8 4
-3 5 8 17 25 27 25 15 29 15 18 2 -11 -13 -10 -14 4 -9 9 3 16 11 16 16 0 6 7
4 17 -3 15 -13 15 -12 3 11 -12 23 -12 24 3 11 14 -11 17 -11 17 -1 0 8 3 10
7 7 3 -4 13 2 21 14 8 12 22 19 35 17 15 -2 22 2 21 12 -1 11 7 16 25 15 18 0
29 7 36 22 5 13 16 25 24 28 10 4 11 2 5 -8 -5 -7 1 -2 12 11 15 16 26 22 35
16 10 -6 10 -3 -1 11 -14 17 -13 18 7 13 16 -4 20 -2 16 8 -3 8 1 14 11 14 9
0 19 7 22 15 4 8 11 12 18 8 6 -4 5 1 -3 10 -12 15 -12 17 4 11 13 -5 16 -4
11 4 -4 7 -1 12 8 12 9 0 16 5 16 11 0 5 6 7 13 3 8 -6 8 -3 -1 9 -12 14 -11
16 7 12 12 -2 19 0 16 5 -3 6 -1 18 4 27 8 14 11 15 11 3 0 -11 3 -10 11 4 8
13 8 20 -1 26 -8 5 -7 9 5 13 11 5 14 3 9 -6 -4 -6 2 -3 13 8 14 13 16 22 9
27 -6 4 0 8 14 8 14 0 20 4 14 8 -6 4 -10 19 -10 34 1 21 -1 24 -11 16 -9 -7
-13 -7 -13 2 0 7 -7 10 -15 7 -8 -4 -17 -1 -21 5 -4 7 -3 8 4 4 7 -4 12 -2 12
3 0 10 -29 16 -52 12 -5 0 -8 5 -8 12 0 8 -4 7 -10 -3 -8 -13 -10 -12 -10 3 0
9 -5 17 -11 17 -5 0 -7 -6 -4 -12 4 -7 0 -5 -8 5 -14 17 -33 24 -23 9 3 -5 -1
-9 -9 -9 -8 0 -12 4 -9 9 5 8 -11 12 -30 9 -5 -1 -13 4 -17 11 -7 10 -9 10 -9
1 0 -21 -16 -15 -28 10 -6 12 -11 16 -11 10 -1 -7 -9 -13 -19 -13 -10 0 -24 6
-31 13 -11 10 -13 9 -8 -4z m30 -470 c-8 -8 -13 -7 -18 2 -5 8 -4 10 3 5 7 -4
12 -2 12 5 0 7 3 9 7 6 4 -4 2 -12 -4 -18z"/>
<path d="M2515 1580 c-3 -5 -1 -10 4 -10 6 0 11 5 11 10 0 6 -2 10 -4 10 -3 0
-8 -4 -11 -10z"/>
<path d="M1575 1109 c-4 -6 -5 -12 -2 -15 2 -3 7 2 10 11 7 17 1 20 -8 4z"/>
<path d="M2525 1090 c-3 -5 -1 -10 4 -10 6 0 11 5 11 10 0 6 -2 10 -4 10 -3 0
-8 -4 -11 -10z"/>
<path d="M1890 995 c-11 -13 -10 -14 4 -9 9 3 16 10 16 15 0 13 -6 11 -20 -6z"/>
<path d="M1785 925 c0 -13 3 -21 8 -18 4 2 7 10 7 18 0 8 -3 16 -7 18 -5 3 -8
-5 -8 -18z"/>
<path d="M2155 940 c3 -5 8 -10 11 -10 2 0 4 5 4 10 0 6 -5 10 -11 10 -5 0 -7
-4 -4 -10z"/>
<path d="M1254 920 c0 -13 4 -16 10 -10 7 7 7 13 0 20 -6 6 -10 3 -10 -10z"/>
<path d="M1094 919 c-4 -7 -3 -9 4 -5 5 3 13 0 15 -6 4 -9 6 -10 6 -1 1 17
-16 25 -25 12z"/>
<path d="M1225 921 c-3 -5 -2 -12 3 -15 5 -3 9 1 9 9 0 17 -3 19 -12 6z"/>
<path d="M1900 920 c0 -5 5 -10 11 -10 5 0 7 5 4 10 -3 6 -8 10 -11 10 -2 0
-4 -4 -4 -10z"/>
<path d="M1955 920 c3 -5 8 -10 11 -10 2 0 4 5 4 10 0 6 -5 10 -11 10 -5 0 -7
-4 -4 -10z"/>
</g>
</svg>
